<mxfile host="app.diagrams.net" modified="2023-04-10T05:40:02.499Z" agent="Mozilla/5.0 (Windows NT 10.0; Win64; x64) AppleWebKit/537.36 (KHTML, like Gecko) Chrome/111.0.0.0 Safari/537.36" etag="GJKDmwaN7tNvUxqivvpK" version="21.1.2" type="device">
  <diagram name="Страница 1" id="9__yXyFuCXOKlr5HCMTi">
    <mxGraphModel dx="1050" dy="549" grid="1" gridSize="10" guides="1" tooltips="1" connect="1" arrows="1" fold="1" page="1" pageScale="1" pageWidth="827" pageHeight="1169" math="0" shadow="0">
      <root>
        <mxCell id="0" />
        <mxCell id="1" parent="0" />
        <mxCell id="H1LNfGKMuRlUsxdKg-mQ-20" value="МКА" style="swimlane;fontStyle=0;childLayout=stackLayout;horizontal=1;startSize=26;horizontalStack=0;resizeParent=1;resizeParentMax=0;resizeLast=0;collapsible=1;marginBottom=0;align=center;fontSize=14;" parent="1" vertex="1">
          <mxGeometry x="160" y="80" width="200" height="200" as="geometry" />
        </mxCell>
        <mxCell id="H1LNfGKMuRlUsxdKg-mQ-22" value="Название_МКА (string)" style="text;strokeColor=none;fillColor=none;spacingLeft=4;spacingRight=4;overflow=hidden;rotatable=0;points=[[0,0.5],[1,0.5]];portConstraint=eastwest;fontSize=12;whiteSpace=wrap;html=1;" parent="H1LNfGKMuRlUsxdKg-mQ-20" vertex="1">
          <mxGeometry y="26" width="200" height="30" as="geometry" />
        </mxCell>
        <mxCell id="H1LNfGKMuRlUsxdKg-mQ-24" value="&lt;font style=&quot;vertical-align: inherit;&quot;&gt;&lt;font style=&quot;vertical-align: inherit;&quot;&gt;Приборы (массив id_приборов)&lt;/font&gt;&lt;/font&gt;" style="text;strokeColor=none;fillColor=none;spacingLeft=4;spacingRight=4;overflow=hidden;rotatable=0;points=[[0,0.5],[1,0.5]];portConstraint=eastwest;fontSize=12;whiteSpace=wrap;html=1;" parent="H1LNfGKMuRlUsxdKg-mQ-20" vertex="1">
          <mxGeometry y="56" width="200" height="30" as="geometry" />
        </mxCell>
        <mxCell id="H1LNfGKMuRlUsxdKg-mQ-25" value="&lt;font style=&quot;vertical-align: inherit;&quot;&gt;&lt;font style=&quot;vertical-align: inherit;&quot;&gt;&lt;font style=&quot;vertical-align: inherit;&quot;&gt;&lt;font style=&quot;vertical-align: inherit;&quot;&gt;Владелец (string)&lt;br&gt;&lt;br&gt;&lt;/font&gt;&lt;/font&gt;&lt;/font&gt;&lt;/font&gt;" style="text;strokeColor=none;fillColor=none;spacingLeft=4;spacingRight=4;overflow=hidden;rotatable=0;points=[[0,0.5],[1,0.5]];portConstraint=eastwest;fontSize=12;whiteSpace=wrap;html=1;" parent="H1LNfGKMuRlUsxdKg-mQ-20" vertex="1">
          <mxGeometry y="86" width="200" height="30" as="geometry" />
        </mxCell>
        <mxCell id="8VaP6vChb1nexVVTLejk-2" value="&amp;nbsp;Производитель (string)" style="text;html=1;strokeColor=none;fillColor=none;align=left;verticalAlign=middle;whiteSpace=wrap;rounded=0;" vertex="1" parent="H1LNfGKMuRlUsxdKg-mQ-20">
          <mxGeometry y="116" width="200" height="30" as="geometry" />
        </mxCell>
        <mxCell id="8VaP6vChb1nexVVTLejk-3" value="&amp;nbsp;Задача_МКА (string)" style="text;html=1;strokeColor=none;fillColor=none;align=left;verticalAlign=middle;whiteSpace=wrap;rounded=0;" vertex="1" parent="H1LNfGKMuRlUsxdKg-mQ-20">
          <mxGeometry y="146" width="200" height="30" as="geometry" />
        </mxCell>
        <mxCell id="H1LNfGKMuRlUsxdKg-mQ-23" value="Unit (int)" style="text;strokeColor=none;fillColor=none;spacingLeft=4;spacingRight=4;overflow=hidden;rotatable=0;points=[[0,0.5],[1,0.5]];portConstraint=eastwest;fontSize=12;whiteSpace=wrap;html=1;" parent="H1LNfGKMuRlUsxdKg-mQ-20" vertex="1">
          <mxGeometry y="176" width="200" height="24" as="geometry" />
        </mxCell>
        <mxCell id="H1LNfGKMuRlUsxdKg-mQ-26" value="Приборы" style="swimlane;fontStyle=0;childLayout=stackLayout;horizontal=1;startSize=26;horizontalStack=0;resizeParent=1;resizeParentMax=0;resizeLast=0;collapsible=1;marginBottom=0;align=center;fontSize=14;" parent="1" vertex="1">
          <mxGeometry x="440" y="80" width="200" height="200" as="geometry" />
        </mxCell>
        <mxCell id="H1LNfGKMuRlUsxdKg-mQ-28" value="Название_прибора (string)" style="text;strokeColor=none;fillColor=none;spacingLeft=4;spacingRight=4;overflow=hidden;rotatable=0;points=[[0,0.5],[1,0.5]];portConstraint=eastwest;fontSize=12;whiteSpace=wrap;html=1;" parent="H1LNfGKMuRlUsxdKg-mQ-26" vertex="1">
          <mxGeometry y="26" width="200" height="30" as="geometry" />
        </mxCell>
        <mxCell id="H1LNfGKMuRlUsxdKg-mQ-32" value="функция_прибора (string)" style="text;strokeColor=none;fillColor=none;spacingLeft=4;spacingRight=4;overflow=hidden;rotatable=0;points=[[0,0.5],[1,0.5]];portConstraint=eastwest;fontSize=12;whiteSpace=wrap;html=1;" parent="H1LNfGKMuRlUsxdKg-mQ-26" vertex="1">
          <mxGeometry y="56" width="200" height="30" as="geometry" />
        </mxCell>
        <mxCell id="8VaP6vChb1nexVVTLejk-4" value="&lt;span style=&quot;color: rgb(0, 0, 0); font-family: Helvetica; font-size: 12px; font-style: normal; font-variant-ligatures: normal; font-variant-caps: normal; font-weight: 400; letter-spacing: normal; orphans: 2; text-align: left; text-indent: 0px; text-transform: none; widows: 2; word-spacing: 0px; -webkit-text-stroke-width: 0px; background-color: rgb(251, 251, 251); text-decoration-thickness: initial; text-decoration-style: initial; text-decoration-color: initial; float: none; display: inline !important;&quot;&gt;&amp;nbsp;Производитель (string)&lt;/span&gt;" style="text;whiteSpace=wrap;html=1;" vertex="1" parent="H1LNfGKMuRlUsxdKg-mQ-26">
          <mxGeometry y="86" width="200" height="24" as="geometry" />
        </mxCell>
        <mxCell id="8VaP6vChb1nexVVTLejk-5" value="&lt;span style=&quot;color: rgb(0, 0, 0); font-family: Helvetica; font-size: 12px; font-style: normal; font-variant-ligatures: normal; font-variant-caps: normal; font-weight: 400; letter-spacing: normal; orphans: 2; text-align: left; text-indent: 0px; text-transform: none; widows: 2; word-spacing: 0px; -webkit-text-stroke-width: 0px; background-color: rgb(251, 251, 251); text-decoration-thickness: initial; text-decoration-style: initial; text-decoration-color: initial; float: none; display: inline !important;&quot;&gt;&amp;nbsp;Владелец (string)&lt;/span&gt;" style="text;whiteSpace=wrap;html=1;" vertex="1" parent="H1LNfGKMuRlUsxdKg-mQ-26">
          <mxGeometry y="110" width="200" height="30" as="geometry" />
        </mxCell>
        <mxCell id="H1LNfGKMuRlUsxdKg-mQ-30" value="Организация (string)" style="text;strokeColor=none;fillColor=none;spacingLeft=4;spacingRight=4;overflow=hidden;rotatable=0;points=[[0,0.5],[1,0.5]];portConstraint=eastwest;fontSize=12;whiteSpace=wrap;html=1;" parent="H1LNfGKMuRlUsxdKg-mQ-26" vertex="1">
          <mxGeometry y="140" width="200" height="30" as="geometry" />
        </mxCell>
        <mxCell id="8VaP6vChb1nexVVTLejk-6" value="Характеристики (string)" style="text;html=1;strokeColor=none;fillColor=none;align=left;verticalAlign=middle;whiteSpace=wrap;rounded=0;" vertex="1" parent="H1LNfGKMuRlUsxdKg-mQ-26">
          <mxGeometry y="170" width="200" height="30" as="geometry" />
        </mxCell>
        <mxCell id="H1LNfGKMuRlUsxdKg-mQ-33" value="" style="edgeStyle=entityRelationEdgeStyle;fontSize=12;html=1;endArrow=ERmany;startArrow=ERmany;rounded=0;exitX=1;exitY=0.5;exitDx=0;exitDy=0;entryX=0;entryY=0.5;entryDx=0;entryDy=0;" parent="1" source="H1LNfGKMuRlUsxdKg-mQ-24" edge="1">
          <mxGeometry width="100" height="100" relative="1" as="geometry">
            <mxPoint x="360" y="340" as="sourcePoint" />
            <mxPoint x="440" y="121" as="targetPoint" />
          </mxGeometry>
        </mxCell>
      </root>
    </mxGraphModel>
  </diagram>
</mxfile>
